<svg width="512" height="512" viewBox="0 0 512 512" fill="none"
     xmlns="http://www.w3.org/2000/svg">
  <circle cx="256" cy="256" r="230" fill="#069494"/>
  <circle cx="256" cy="256" r="230" stroke="#B7410E" stroke-width="18"/>
  <path d="M120 340 Q256 220 392 340 Z" fill="#B7410E"/>
  <rect x="140" y="330" width="18" height="60" fill="#FFCE1B" rx="6"/>
  <rect x="180" y="315" width="18" height="75" fill="#FFCE1B" rx="6"/>
  <rect x="220" y="300" width="18" height="90" fill="#FFCE1B" rx="6"/>
  <rect x="260" y="300" width="18" height="90" fill="#FFCE1B" rx="6"/>
  <rect x="300" y="315" width="18" height="75" fill="#FFCE1B" rx="6"/>
  <rect x="340" y="330" width="18" height="60" fill="#FFCE1B" rx="6"/>
  <circle cx="256" cy="160" r="38" fill="#BE5103"/>
  <circle cx="206" cy="190" r="20" fill="#FFCE1B"/>
  <circle cx="306" cy="190" r="20" fill="#FFCE1B"/>
  <line x1="256" y1="160" x2="206" y2="190" stroke="#FFF7E5" stroke-width="10" stroke-linecap="round"/>
  <line x1="256" y1="160" x2="306" y2="190" stroke="#FFF7E5" stroke-width="10" stroke-linecap="round"/>
</svg>